<?xml version="1.0" encoding="utf-8" standalone="no"?>
<!DOCTYPE svg PUBLIC "-//W3C//DTD SVG 1.1//EN"
  "http://www.w3.org/Graphics/SVG/1.1/DTD/svg11.dtd">
<svg xmlns:xlink="http://www.w3.org/1999/xlink" width="317.355429pt" height="194.256pt" viewBox="0 0 317.355429 194.256" xmlns="http://www.w3.org/2000/svg" version="1.1">
 <metadata>
  <rdf:RDF xmlns:dc="http://purl.org/dc/elements/1.1/" xmlns:cc="http://creativecommons.org/ns#" xmlns:rdf="http://www.w3.org/1999/02/22-rdf-syntax-ns#">
   <cc:Work>
    <dc:type rdf:resource="http://purl.org/dc/dcmitype/StillImage"/>
    <dc:date>2026-09-30T16:18:18.478228</dc:date>
    <dc:format>image/svg+xml</dc:format>
    <dc:creator>
     <cc:Agent>
      <dc:title>Matplotlib v3.10.9, https://matplotlib.org/</dc:title>
     </cc:Agent>
    </dc:creator>
   </cc:Work>
  </rdf:RDF>
 </metadata>
 <defs>
  <style type="text/css">*{stroke-linejoin: round; stroke-linecap: butt}</style>
 </defs>
 <g id="figure_1">
  <g id="patch_1">
   <path d="M 0 194.256 
L 317.355429 194.256 
L 317.355429 0 
L 0 0 
z
" style="fill: #ffffff"/>
  </g>
  <g id="axes_1">
   <g id="patch_2">
    <path d="M 17.498057 107.514514 
L 49.811657 107.514514 
L 49.811657 75.200914 
L 17.498057 75.200914 
z
" clip-path="url(#pb253e3bef1)" style="fill: #f0efec; stroke: #52514e; stroke-linejoin: miter"/>
   </g>
   <g id="patch_3">
    <path d="M 111.780744 61.741483 
L 154.595477 53.077704 
L 163.259256 24.802517 
L 120.444523 33.466296 
z
" clip-path="url(#pb253e3bef1)" style="fill: #f0efec; stroke: #52514e; stroke-linejoin: miter"/>
   </g>
   <g id="patch_4">
    <path d="M 135.528564 162.205646 
L 160.282218 141.434865 
L 139.511436 116.681211 
L 114.757782 137.451993 
z
" clip-path="url(#pb253e3bef1)" style="fill: #f0efec; stroke: #52514e; stroke-linejoin: miter"/>
   </g>
   <g id="patch_5">
    <path d="M 233.539683 122.051034 
L 260.768702 87.893414 
L 249.230602 60.664395 
L 222.001583 94.822015 
z
" clip-path="url(#pb253e3bef1)" style="fill: #f0efec; stroke: #52514e; stroke-linejoin: miter"/>
   </g>
   <g id="line2d_1">
    <path d="M 49.811657 91.357714 
L 49.779128 90.332987 
L 49.681673 89.312385 
L 49.519683 88.30002 
L 49.293811 87.299966 
L 49.004966 86.316252 
L 48.654312 85.352838 
L 48.243261 84.413604 
L 47.773467 83.502331 
L 47.246822 82.622689 
L 46.665448 81.778219 
L 46.031684 80.972323 
L 45.348083 80.208246 
L 44.617398 79.489063 
L 43.84257 78.817671 
L 43.026721 78.196774 
L 42.173134 77.62887 
L 41.285246 77.116249 
L 40.366634 76.660972 
L 39.420996 76.264874 
L 38.45214 75.92955 
L 37.463967 75.656349 
L 36.460456 75.446372 
L 35.445648 75.300465 
L 34.423629 75.219214 
L 33.398514 75.202948 
L 32.374431 75.251731 
L 31.355505 75.365367 
L 30.345837 75.543399 
L 29.349493 75.785109 
L 28.370485 76.089525 
L 27.412756 76.45542 
L 26.480162 76.881322 
L 25.576457 77.365515 
L 24.705281 77.90605 
L 23.870143 78.500749 
L 23.074403 79.14722 
L 22.321268 79.842857 
L 21.613768 80.584861 
L 20.954755 81.370243 
L 20.346879 82.195841 
L 19.792591 83.058331 
L 19.294121 83.95424 
L 18.853476 84.87996 
L 18.472431 85.831763 
L 18.152521 86.805818 
L 17.895033 87.798201 
L 17.701005 88.804917 
L 17.571216 89.821913 
L 17.506191 90.845092 
L 17.506191 91.870336 
L 17.571216 92.893516 
L 17.701005 93.910511 
L 17.895033 94.917228 
L 18.152521 95.909611 
L 18.472431 96.883665 
L 18.853476 97.835469 
L 19.294121 98.761189 
L 19.792591 99.657097 
L 20.346879 100.519587 
L 20.954755 101.345185 
L 21.613768 102.130568 
L 22.321268 102.872571 
L 23.074403 103.568209 
L 23.870143 104.214679 
L 24.705281 104.809379 
L 25.576457 105.349914 
L 26.480162 105.834106 
L 27.412756 106.260008 
L 28.370485 106.625904 
L 29.349493 106.930319 
L 30.345837 107.17203 
L 31.355505 107.350061 
L 32.374431 107.463698 
L 33.398514 107.512481 
L 34.423629 107.496214 
L 35.445648 107.414964 
L 36.460456 107.269056 
L 37.463967 107.059079 
L 38.45214 106.785879 
L 39.420996 106.450554 
L 40.366634 106.054457 
L 41.285246 105.59918 
L 42.173134 105.086558 
L 43.026721 104.518655 
L 43.84257 103.897757 
L 44.617398 103.226366 
L 45.348083 102.507183 
L 46.031684 101.743105 
L 46.665448 100.937209 
L 47.246822 100.09274 
L 47.773467 99.213098 
L 48.243261 98.301825 
L 48.654312 97.36259 
L 49.004966 96.399176 
L 49.293811 95.415462 
L 49.519683 94.415409 
L 49.681673 93.403043 
L 49.779128 92.382442 
L 49.811657 91.357714 
" clip-path="url(#pb253e3bef1)" style="fill: none; stroke: #2a78d6; stroke-width: 1.1; stroke-linecap: square"/>
   </g>
   <g id="line2d_2">
    <path d="M 158.927367 38.940111 
L 159.159012 38.052171 
L 159.303525 37.185249 
L 159.360323 36.342836 
L 159.329178 35.528325 
L 159.210215 34.744995 
L 159.003914 33.996 
L 158.711104 33.284356 
L 158.332965 32.612929 
L 157.871019 31.984423 
L 157.327127 31.401367 
L 156.703479 30.86611 
L 156.002586 30.380808 
L 155.22727 29.947414 
L 154.380653 29.567673 
L 153.466144 29.243114 
L 152.487426 28.975045 
L 151.448439 28.764545 
L 150.353367 28.612461 
L 149.206619 28.519406 
L 148.012814 28.485754 
L 146.776758 28.511642 
L 145.503428 28.596964 
L 144.197952 28.741377 
L 142.865586 28.9443 
L 141.511696 29.204916 
L 140.141732 29.522175 
L 138.761211 29.894799 
L 137.375692 30.321289 
L 135.990755 30.799927 
L 134.611975 31.328785 
L 133.244905 31.905735 
L 131.895049 32.528452 
L 130.567843 33.19443 
L 129.268631 33.900987 
L 128.002644 34.645277 
L 126.77498 35.424304 
L 125.590582 36.234931 
L 124.45422 37.073894 
L 123.370469 37.937815 
L 122.343694 38.823214 
L 121.378028 39.726527 
L 120.47736 40.644117 
L 119.645317 41.572288 
L 118.885249 42.507303 
L 118.200216 43.445397 
L 117.592978 44.382793 
L 117.065978 45.315717 
L 116.62134 46.240411 
L 116.260853 47.153152 
L 115.985969 48.050265 
L 115.797795 48.928138 
L 115.697089 49.783236 
L 115.684256 50.612115 
L 115.759348 51.411438 
L 115.922062 52.177986 
L 116.171743 52.908673 
L 116.507387 53.600557 
L 116.927641 54.250851 
L 117.430813 54.856938 
L 118.014877 55.416375 
L 118.677481 55.926912 
L 119.415957 56.386492 
L 120.227332 56.793264 
L 121.108339 57.145591 
L 122.055429 57.442054 
L 123.06479 57.68146 
L 124.132357 57.862843 
L 125.253831 57.985474 
L 126.424697 58.048859 
L 127.64024 58.052743 
L 128.895565 57.997111 
L 130.185617 57.882185 
L 131.505202 57.708429 
L 132.849007 57.476543 
L 134.211621 57.187461 
L 135.587556 56.842345 
L 136.971272 56.442587 
L 138.357198 55.989795 
L 139.739752 55.485793 
L 141.113369 54.932611 
L 142.472516 54.332475 
L 143.811722 53.687803 
L 145.125592 53.00119 
L 146.408838 52.275401 
L 147.656292 51.513359 
L 148.86293 50.718131 
L 150.023894 49.892921 
L 151.13451 49.04105 
L 152.190304 48.165949 
L 153.187027 47.271143 
L 154.120664 46.360233 
L 154.987456 45.436888 
L 155.783912 44.504825 
L 156.506827 43.567799 
L 157.153288 42.629581 
L 157.720692 41.693951 
L 158.206756 40.764674 
L 158.609521 39.845494 
L 158.927367 38.940111 
" clip-path="url(#pb253e3bef1)" style="fill: none; stroke: #2a78d6; stroke-width: 1.1; stroke-linecap: square"/>
   </g>
   <g id="line2d_3">
    <path d="M 149.896827 129.058038 
L 149.213226 128.29396 
L 148.482541 127.574777 
L 147.707713 126.903385 
L 146.891863 126.282488 
L 146.038276 125.714585 
L 145.150389 125.201963 
L 144.231777 124.746686 
L 143.286139 124.350588 
L 142.317283 124.015264 
L 141.32911 123.742063 
L 140.325599 123.532087 
L 139.310791 123.386179 
L 138.288771 123.304929 
L 137.263657 123.288662 
L 136.239574 123.337445 
L 135.220648 123.451081 
L 134.21098 123.629113 
L 133.214636 123.870824 
L 132.235628 124.175239 
L 131.277899 124.541135 
L 130.345305 124.967036 
L 129.4416 125.451229 
L 128.570424 125.991764 
L 127.735285 126.586464 
L 126.939546 127.232934 
L 126.186411 127.928571 
L 125.478911 128.670575 
L 124.819897 129.455957 
L 124.212022 130.281556 
L 123.657734 131.144046 
L 123.159263 132.039954 
L 122.718619 132.965674 
L 122.337574 133.917478 
L 122.017664 134.891532 
L 121.760176 135.883915 
L 121.566147 136.890632 
L 121.436359 137.907627 
L 121.371334 138.930807 
L 121.371334 139.95605 
L 121.436359 140.97923 
L 121.566147 141.996226 
L 121.760176 143.002942 
L 122.017664 143.995325 
L 122.337574 144.96938 
L 122.718619 145.921183 
L 123.159263 146.846903 
L 123.657734 147.742811 
L 124.212022 148.605301 
L 124.819897 149.4309 
L 125.478911 150.216282 
L 126.186411 150.958286 
L 126.939546 151.653923 
L 127.735285 152.300393 
L 128.570424 152.895093 
L 129.4416 153.435628 
L 130.345305 153.919821 
L 131.277899 154.345722 
L 132.235628 154.711618 
L 133.214636 155.016034 
L 134.21098 155.257744 
L 135.220648 155.435776 
L 136.239574 155.549412 
L 137.263657 155.598195 
L 138.288771 155.581928 
L 139.310791 155.500678 
L 140.325599 155.35477 
L 141.32911 155.144794 
L 142.317283 154.871593 
L 143.286139 154.536269 
L 144.231777 154.140171 
L 145.150389 153.684894 
L 146.038276 153.172272 
L 146.891863 152.604369 
L 147.707713 151.983472 
L 148.482541 151.31208 
L 149.213226 150.592897 
L 149.896827 149.828819 
L 150.53059 149.022923 
L 151.111965 148.178454 
L 151.63861 147.298812 
L 152.108403 146.387539 
L 152.519455 145.448305 
L 152.870109 144.484891 
L 153.158954 143.501176 
L 153.384826 142.501123 
L 153.546816 141.488758 
L 153.644271 140.468156 
L 153.6768 139.443429 
L 153.644271 138.418701 
L 153.546816 137.3981 
L 153.384826 136.385734 
L 153.158954 135.385681 
L 152.870109 134.401967 
L 152.519455 133.438553 
L 152.108403 132.499318 
L 151.63861 131.588045 
L 151.111965 130.708403 
L 150.53059 129.863934 
L 149.896827 129.058038 
" clip-path="url(#pb253e3bef1)" style="fill: none; stroke: #2a78d6; stroke-width: 1.1; stroke-linecap: square"/>
   </g>
   <g id="line2d_4">
    <path d="M 254.999652 74.278904 
L 254.606346 73.449804 
L 254.159803 72.692812 
L 253.661821 72.010978 
L 253.114404 71.407046 
L 252.519759 70.883448 
L 251.880278 70.442293 
L 251.198537 70.085357 
L 250.47728 69.814077 
L 249.719413 69.629546 
L 248.927987 69.532506 
L 248.106188 69.523349 
L 247.257327 69.602111 
L 246.384819 69.768475 
L 245.49218 70.021772 
L 244.583004 70.360981 
L 243.660951 70.784736 
L 242.729733 71.291331 
L 241.793102 71.878727 
L 240.854828 72.544557 
L 239.918689 73.286142 
L 238.988456 74.100494 
L 238.067873 74.984336 
L 237.160647 75.934106 
L 236.270432 76.945983 
L 235.400812 78.01589 
L 234.555289 79.13952 
L 233.737267 80.312349 
L 232.95004 81.529653 
L 232.196779 82.786532 
L 231.480516 84.077923 
L 230.804135 85.398628 
L 230.170361 86.743328 
L 229.581744 88.106608 
L 229.040656 89.48298 
L 228.549274 90.8669 
L 228.109578 92.252797 
L 227.723338 93.635089 
L 227.392109 95.008211 
L 227.117225 96.366634 
L 226.899794 97.704888 
L 226.740689 99.017584 
L 226.640552 100.299437 
L 226.599787 101.545284 
L 226.618557 102.750109 
L 226.696787 103.909062 
L 226.834162 105.017474 
L 227.030129 106.070884 
L 227.283898 107.065049 
L 227.594448 107.995966 
L 227.960528 108.859886 
L 228.380664 109.653331 
L 228.853165 110.373107 
L 229.376127 111.016314 
L 229.947446 111.580363 
L 230.56482 112.062982 
L 231.225764 112.462229 
L 231.927616 112.776495 
L 232.66755 113.004516 
L 233.442587 113.145372 
L 234.249606 113.198497 
L 235.085357 113.163677 
L 235.946475 113.041052 
L 236.829492 112.831116 
L 237.730854 112.534714 
L 238.64693 112.15304 
L 239.574032 111.68763 
L 240.508427 111.140359 
L 241.446351 110.513431 
L 242.38403 109.809369 
L 243.317686 109.031008 
L 244.243561 108.181484 
L 245.157925 107.264216 
L 246.057099 106.282898 
L 246.937459 105.241482 
L 247.795463 104.144161 
L 248.627654 102.995353 
L 249.430683 101.799685 
L 250.201315 100.56197 
L 250.936447 99.287193 
L 251.633119 97.980487 
L 252.288527 96.647114 
L 252.90003 95.292442 
L 253.465167 93.921926 
L 253.981663 92.541085 
L 254.447436 91.155479 
L 254.860612 89.770687 
L 255.219527 88.392285 
L 255.522736 87.025825 
L 255.769018 85.676807 
L 255.957381 84.350665 
L 256.087067 83.052737 
L 256.157553 81.78825 
L 256.168556 80.562297 
L 256.120032 79.379813 
L 256.012175 78.245559 
L 255.84542 77.164104 
L 255.620439 76.139801 
L 255.338138 75.176775 
L 254.999652 74.278904 
" clip-path="url(#pb253e3bef1)" style="fill: none; stroke: #2a78d6; stroke-width: 1.1; stroke-linecap: square"/>
   </g>
   <g id="patch_6">
    <path d="M 33.654857 91.357714 
Q 40.976374 87.943635 46.879295 85.191058 
" clip-path="url(#pb253e3bef1)" style="fill: none; stroke: #eb6834; stroke-width: 1.4; stroke-linejoin: miter"/>
    <path d="M 43.302921 85.093344 
L 46.879295 85.191058 
L 44.655299 87.993529 
z
" clip-path="url(#pb253e3bef1)" style="fill: #eb6834; stroke: #eb6834; stroke-width: 1.4; stroke-linejoin: miter"/>
   </g>
   <g id="patch_7">
    <path d="M 33.654857 91.357714 
Q 30.240778 84.036197 27.488201 78.133277 
" clip-path="url(#pb253e3bef1)" style="fill: none; stroke: #eb6834; stroke-width: 1.4; stroke-linejoin: miter"/>
    <path d="M 27.390487 81.709651 
L 27.488201 78.133277 
L 30.290672 80.357272 
z
" clip-path="url(#pb253e3bef1)" style="fill: #eb6834; stroke: #eb6834; stroke-width: 1.4; stroke-linejoin: miter"/>
   </g>
   <g id="patch_8">
    <path d="M 137.52 43.272 
Q 148.136199 38.321585 157.333803 34.032672 
" clip-path="url(#pb253e3bef1)" style="fill: none; stroke: #eb6834; stroke-width: 1.4; stroke-linejoin: miter"/>
    <path d="M 153.757429 33.934958 
L 157.333803 34.032672 
L 155.109807 36.835143 
z
" clip-path="url(#pb253e3bef1)" style="fill: #eb6834; stroke: #eb6834; stroke-width: 1.4; stroke-linejoin: miter"/>
   </g>
   <g id="patch_9">
    <path d="M 137.52 43.272 
Q 134.95944 37.780862 133.060383 33.708321 
" clip-path="url(#pb253e3bef1)" style="fill: none; stroke: #eb6834; stroke-width: 1.4; stroke-linejoin: miter"/>
    <path d="M 132.962669 37.284695 
L 133.060383 33.708321 
L 135.862854 35.932317 
z
" clip-path="url(#pb253e3bef1)" style="fill: #eb6834; stroke: #eb6834; stroke-width: 1.4; stroke-linejoin: miter"/>
   </g>
   <g id="patch_10">
    <path d="M 137.52 139.443429 
Q 140.934079 132.121912 143.686657 126.218991 
" clip-path="url(#pb253e3bef1)" style="fill: none; stroke: #eb6834; stroke-width: 1.4; stroke-linejoin: miter"/>
    <path d="M 140.884186 128.442987 
L 143.686657 126.218991 
L 143.784371 129.795365 
z
" clip-path="url(#pb253e3bef1)" style="fill: #eb6834; stroke: #eb6834; stroke-width: 1.4; stroke-linejoin: miter"/>
   </g>
   <g id="patch_11">
    <path d="M 137.52 139.443429 
Q 130.198483 136.029349 124.295562 133.276772 
" clip-path="url(#pb253e3bef1)" style="fill: none; stroke: #eb6834; stroke-width: 1.4; stroke-linejoin: miter"/>
    <path d="M 126.519558 136.079243 
L 124.295562 133.276772 
L 127.871937 133.179058 
z
" clip-path="url(#pb253e3bef1)" style="fill: #eb6834; stroke: #eb6834; stroke-width: 1.4; stroke-linejoin: miter"/>
   </g>
   <g id="patch_12">
    <path d="M 241.385143 91.357714 
Q 246.335558 80.741515 250.624471 71.543912 
" clip-path="url(#pb253e3bef1)" style="fill: none; stroke: #eb6834; stroke-width: 1.4; stroke-linejoin: miter"/>
    <path d="M 247.822 73.767907 
L 250.624471 71.543912 
L 250.722185 75.120286 
z
" clip-path="url(#pb253e3bef1)" style="fill: #eb6834; stroke: #eb6834; stroke-width: 1.4; stroke-linejoin: miter"/>
   </g>
   <g id="patch_13">
    <path d="M 241.385143 91.357714 
Q 235.894005 88.797155 231.821464 86.898097 
" clip-path="url(#pb253e3bef1)" style="fill: none; stroke: #eb6834; stroke-width: 1.4; stroke-linejoin: miter"/>
    <path d="M 234.045459 89.700568 
L 231.821464 86.898097 
L 235.397838 86.800383 
z
" clip-path="url(#pb253e3bef1)" style="fill: #eb6834; stroke: #eb6834; stroke-width: 1.4; stroke-linejoin: miter"/>
   </g>
   <g id="patch_14">
    <path d="M 62.506286 74.046857 
Q 81.740571 62.506286 100.016151 51.540938 
" clip-path="url(#pb253e3bef1)" style="fill: none; stroke: #52514e; stroke-linejoin: miter"/>
    <path d="M 95.111291 51.918235 
L 100.016151 51.540938 
L 97.375073 55.691204 
z
" clip-path="url(#pb253e3bef1)" style="fill: #52514e; stroke: #52514e; stroke-linejoin: miter"/>
   </g>
   <g id="patch_15">
    <path d="M 174.065143 50.965714 
Q 193.299429 62.506286 211.575008 73.471633 
" clip-path="url(#pb253e3bef1)" style="fill: none; stroke: #52514e; stroke-linejoin: miter"/>
    <path d="M 208.93393 69.321368 
L 211.575008 73.471633 
L 206.670149 73.094337 
z
" clip-path="url(#pb253e3bef1)" style="fill: #52514e; stroke: #52514e; stroke-linejoin: miter"/>
   </g>
   <g id="patch_16">
    <path d="M 62.506286 108.668571 
Q 82.702286 119.247429 101.907896 129.30751 
" clip-path="url(#pb253e3bef1)" style="fill: none; stroke: #52514e; stroke-linejoin: miter"/>
    <path d="M 99.031053 125.31705 
L 101.907896 129.30751 
L 96.989422 129.214709 
z
" clip-path="url(#pb253e3bef1)" style="fill: #52514e; stroke: #52514e; stroke-linejoin: miter"/>
   </g>
   <g id="patch_17">
    <path d="M 172.141714 129.826286 
Q 192.337714 119.247429 211.543325 109.187347 
" clip-path="url(#pb253e3bef1)" style="fill: none; stroke: #52514e; stroke-linejoin: miter"/>
    <path d="M 206.62485 109.280148 
L 211.543325 109.187347 
L 208.666481 113.177807 
z
" clip-path="url(#pb253e3bef1)" style="fill: #52514e; stroke: #52514e; stroke-linejoin: miter"/>
   </g>
   <g id="text_1">
    <!-- élément initial -->
    <g style="fill: #0b0b0b" transform="translate(6.249548 120.525066) scale(0.09 -0.09)">
     <defs>
      <path id="NimbusSanL-Regu-b4" d="M 1203 4736 
L 589 3776 
L 973 3776 
L 1926 4736 
L 1203 4736 
z
" transform="scale(0.015625)"/>
      <path id="NimbusSanL-Regu-65" d="M 3283 1529 
C 3283 2034 3245 2338 3149 2584 
C 2931 3127 2419 3456 1792 3456 
C 858 3456 256 2742 256 1645 
C 256 547 838 -128 1779 -128 
C 2547 -128 3078 310 3213 1044 
L 2675 1044 
C 2528 598 2227 365 1798 365 
C 1459 365 1171 520 992 805 
C 864 998 819 1193 813 1529 
L 3283 1529 
z
M 826 1984 
C 870 2577 1248 2962 1786 2962 
C 2310 2962 2714 2530 2714 1984 
C 2714 1984 2714 1984 2707 1984 
L 826 1984 
z
" transform="scale(0.015625)"/>
      <path id="NimbusSanL-Regu-6c" d="M 973 4672 
L 435 4672 
L 435 -2 
L 973 -2 
L 973 4672 
z
" transform="scale(0.015625)"/>
      <path id="NimbusSanL-Regu-6d" d="M 448 3359 
L 448 0 
L 986 0 
L 986 2109 
C 986 2597 1338 2988 1773 2988 
C 2170 2988 2394 2744 2394 2314 
L 2394 0 
L 2931 0 
L 2931 2109 
C 2931 2597 3283 2988 3718 2988 
C 4109 2988 4339 2738 4339 2314 
L 4339 0 
L 4877 0 
L 4877 2520 
C 4877 3122 4531 3456 3904 3456 
C 3456 3456 3187 3321 2874 2943 
C 2675 3302 2406 3456 1971 3456 
C 1523 3456 1229 3289 941 2885 
L 941 3359 
L 448 3359 
z
" transform="scale(0.015625)"/>
      <path id="NimbusSanL-Regu-6e" d="M 448 3359 
L 448 0 
L 986 0 
L 986 1853 
C 986 2539 1344 2988 1894 2988 
C 2317 2988 2586 2731 2586 2327 
L 2586 0 
L 3117 0 
L 3117 2539 
C 3117 3097 2701 3456 2054 3456 
C 1555 3456 1235 3263 941 2796 
L 941 3359 
L 448 3359 
z
" transform="scale(0.015625)"/>
      <path id="NimbusSanL-Regu-74" d="M 1626 3380 
L 1075 3380 
L 1075 4288 
L 544 4288 
L 544 3380 
L 90 3380 
L 90 2944 
L 544 2944 
L 544 404 
C 544 64 774 -128 1190 -128 
C 1318 -128 1446 -116 1626 -83 
L 1626 366 
C 1555 346 1472 340 1370 340 
C 1139 340 1075 404 1075 641 
L 1075 2944 
L 1626 2944 
L 1626 3380 
z
" transform="scale(0.015625)"/>
      <path id="NimbusSanL-Regu-69" d="M 960 3359 
L 429 3359 
L 429 0 
L 960 0 
L 960 3359 
z
M 960 4672 
L 422 4672 
L 422 3999 
L 960 3999 
L 960 4672 
z
" transform="scale(0.015625)"/>
      <path id="NimbusSanL-Regu-61" d="M 3424 333 
C 3366 320 3341 320 3309 320 
C 3123 320 3021 415 3021 581 
L 3021 2545 
C 3021 3137 2586 3456 1760 3456 
C 1274 3456 870 3316 646 3066 
C 493 2893 429 2702 416 2370 
L 954 2370 
C 998 2777 1242 2962 1741 2962 
C 2221 2962 2490 2783 2490 2465 
L 2490 2325 
C 2490 2101 2355 2006 1933 1955 
C 1178 1860 1062 1834 858 1751 
C 467 1592 269 1292 269 859 
C 269 254 691 -128 1370 -128 
C 1792 -128 2131 19 2509 365 
C 2547 25 2714 -128 3059 -128 
C 3168 -128 3251 -116 3424 -70 
L 3424 333 
z
M 2490 1072 
C 2490 893 2438 785 2278 639 
C 2061 441 1798 340 1485 340 
C 1069 340 826 537 826 874 
C 826 1225 1062 1403 1632 1486 
C 2195 1562 2310 1588 2490 1670 
L 2490 1072 
z
" transform="scale(0.015625)"/>
     </defs>
     <use xlink:href="#NimbusSanL-Regu-b4" transform="translate(11.108231 1.842456) scale(0.996264)"/>
     <use xlink:href="#NimbusSanL-Regu-65" transform="scale(0.996264)"/>
     <use xlink:href="#NimbusSanL-Regu-6c" transform="translate(55.391677 0) scale(0.996264)"/>
     <use xlink:href="#NimbusSanL-Regu-b4" transform="translate(88.616693 1.842456) scale(0.996264)"/>
     <use xlink:href="#NimbusSanL-Regu-65" transform="translate(77.508461 0) scale(0.996264)"/>
     <use xlink:href="#NimbusSanL-Regu-6d" transform="translate(132.900138 0) scale(0.996264)"/>
     <use xlink:href="#NimbusSanL-Regu-65" transform="translate(215.888569 0) scale(0.996264)"/>
     <use xlink:href="#NimbusSanL-Regu-6e" transform="translate(271.280245 0) scale(0.996264)"/>
     <use xlink:href="#NimbusSanL-Regu-74" transform="translate(326.671922 0) scale(0.996264)"/>
     <use xlink:href="#NimbusSanL-Regu-69" transform="translate(382.062262 0) scale(0.996264)"/>
     <use xlink:href="#NimbusSanL-Regu-6e" transform="translate(404.179046 0) scale(0.996264)"/>
     <use xlink:href="#NimbusSanL-Regu-69" transform="translate(459.570723 0) scale(0.996264)"/>
     <use xlink:href="#NimbusSanL-Regu-74" transform="translate(481.687507 0) scale(0.996264)"/>
     <use xlink:href="#NimbusSanL-Regu-69" transform="translate(509.382677 0) scale(0.996264)"/>
     <use xlink:href="#NimbusSanL-Regu-61" transform="translate(531.499461 0) scale(0.996264)"/>
     <use xlink:href="#NimbusSanL-Regu-6c" transform="translate(586.891138 0) scale(0.996264)"/>
    </g>
   </g>
   <g id="text_2">
    <!-- $\tens{U}$ : étirement pur -->
    <g style="fill: #0b0b0b" transform="translate(103.456956 80.794184) scale(0.09 -0.09)">
     <defs>
      <path id="CMMI12-55" d="M 3238 1474 
C 3014 581 2272 57 1670 57 
C 1210 57 896 363 896 891 
C 896 916 896 1107 966 1387 
L 1594 3887 
C 1651 4103 1664 4167 2118 4167 
C 2234 4167 2298 4167 2298 4282 
C 2298 4352 2240 4352 2202 4352 
C 2086 4352 1952 4352 1830 4352 
L 1075 4352 
C 954 4352 819 4352 698 4352 
C 653 4352 576 4352 576 4231 
C 576 4167 621 4167 742 4167 
C 1126 4167 1126 4116 1126 4046 
C 1126 4008 1082 3824 1050 3715 
L 493 1488 
C 474 1418 435 1246 435 1075 
C 435 374 941 -128 1638 -128 
C 2285 -128 3002 384 3328 1197 
C 3373 1305 3430 1530 3469 1702 
C 3533 1933 3667 2496 3712 2662 
L 3955 3623 
C 4038 3956 4090 4167 4653 4167 
C 4704 4173 4730 4224 4730 4282 
C 4730 4352 4672 4352 4646 4352 
C 4557 4352 4442 4352 4352 4352 
L 4051 4352 
C 3654 4352 3450 4352 3443 4352 
C 3405 4352 3328 4352 3328 4231 
C 3328 4167 3379 4167 3424 4167 
C 3808 4167 3834 4020 3834 3905 
C 3834 3848 3834 3828 3808 3739 
L 3238 1474 
z
" transform="scale(0.015625)"/>
      <path id="CMSY10-18" d="M 4622 2138 
C 4622 2278 4584 2342 4533 2342 
C 4501 2342 4449 2298 4443 2176 
C 4417 1562 3995 1210 3547 1210 
C 3143 1210 2836 1485 2522 1760 
C 2196 2054 1863 2349 1428 2349 
C 730 2349 352 1645 352 1062 
C 352 858 435 858 442 858 
C 512 858 531 986 531 1005 
C 557 1709 1037 1990 1428 1990 
C 1831 1990 2138 1715 2452 1440 
C 2778 1146 3111 851 3547 851 
C 4245 851 4622 1555 4622 2138 
z
" transform="scale(0.015625)"/>
      <path id="NimbusSanL-Regu-3a" d="M 1370 667 
L 704 667 
L 704 0 
L 1370 0 
L 1370 667 
z
M 1370 3354 
L 704 3354 
L 704 2688 
L 1370 2688 
L 1370 3354 
z
" transform="scale(0.015625)"/>
      <path id="NimbusSanL-Regu-72" d="M 442 3359 
L 442 0 
L 979 0 
L 979 1741 
C 979 2221 1101 2535 1357 2720 
C 1523 2842 1683 2880 2054 2880 
L 2054 3432 
C 1965 3444 1920 3444 1850 3444 
C 1504 3444 1242 3240 934 2746 
L 934 3359 
L 442 3359 
z
" transform="scale(0.015625)"/>
      <path id="NimbusSanL-Regu-70" d="M 346 -1408 
L 883 -1408 
L 883 320 
C 1165 -27 1478 -180 1914 -180 
C 2778 -180 3347 522 3347 1599 
C 3347 2734 2797 3444 1907 3444 
C 1453 3444 1088 3238 838 2841 
L 838 3349 
L 346 3349 
L 346 -1408 
z
M 1818 2944 
C 2406 2944 2790 2420 2790 1612 
C 2790 843 2400 320 1818 320 
C 1254 320 883 837 883 1632 
C 883 2427 1254 2944 1818 2944 
z
" transform="scale(0.015625)"/>
      <path id="NimbusSanL-Regu-75" d="M 3085 33 
L 3085 3392 
L 2554 3392 
L 2554 1479 
C 2554 790 2195 340 1638 340 
C 1216 340 947 597 947 1003 
L 947 3392 
L 416 3392 
L 416 792 
C 416 232 832 -128 1485 -128 
C 1978 -128 2291 45 2605 488 
L 2605 33 
L 3085 33 
z
" transform="scale(0.015625)"/>
     </defs>
     <use xlink:href="#CMMI12-55" transform="scale(0.996264)"/>
     <use xlink:href="#CMSY10-18" transform="translate(11.208897 -59.775871) scale(0.697382)"/>
     <use xlink:href="#NimbusSanL-Regu-3a" transform="translate(104.353942 0) scale(0.996264)"/>
     <use xlink:href="#NimbusSanL-Regu-b4" transform="translate(177.426995 1.842456) scale(0.996264)"/>
     <use xlink:href="#NimbusSanL-Regu-65" transform="translate(166.318764 0) scale(0.996264)"/>
     <use xlink:href="#NimbusSanL-Regu-74" transform="translate(221.710441 0) scale(0.996264)"/>
     <use xlink:href="#NimbusSanL-Regu-69" transform="translate(249.40561 0) scale(0.996264)"/>
     <use xlink:href="#NimbusSanL-Regu-72" transform="translate(271.522395 0) scale(0.996264)"/>
     <use xlink:href="#NimbusSanL-Regu-65" transform="translate(304.697624 0) scale(0.996264)"/>
     <use xlink:href="#NimbusSanL-Regu-6d" transform="translate(360.089301 0) scale(0.996264)"/>
     <use xlink:href="#NimbusSanL-Regu-65" transform="translate(443.077732 0) scale(0.996264)"/>
     <use xlink:href="#NimbusSanL-Regu-6e" transform="translate(498.469409 0) scale(0.996264)"/>
     <use xlink:href="#NimbusSanL-Regu-74" transform="translate(553.861086 0) scale(0.996264)"/>
     <use xlink:href="#NimbusSanL-Regu-70" transform="translate(609.251425 0) scale(0.996264)"/>
     <use xlink:href="#NimbusSanL-Regu-75" transform="translate(664.643102 0) scale(0.996264)"/>
     <use xlink:href="#NimbusSanL-Regu-72" transform="translate(720.034779 0) scale(0.996264)"/>
    </g>
   </g>
   <g id="text_3">
    <!-- $\tens{R}$ : rotation pure -->
    <g style="fill: #0b0b0b" transform="translate(104.799243 176.799739) scale(0.09 -0.09)">
     <defs>
      <path id="CMMI12-52" d="M 2355 3924 
C 2413 4160 2438 4160 2688 4160 
L 3149 4160 
C 3699 4160 4109 3995 4109 3499 
C 4109 3175 3942 2240 2656 2240 
L 1933 2240 
L 2355 3924 
z
M 3245 2169 
C 4038 2341 4659 2851 4659 3398 
C 4659 3894 4154 4352 3264 4352 
L 1530 4352 
C 1402 4352 1344 4352 1344 4226 
C 1344 4160 1389 4160 1510 4160 
C 1894 4160 1894 4112 1894 4045 
C 1894 4033 1894 3994 1869 3899 
L 1005 479 
C 947 256 934 192 493 192 
C 346 192 301 192 301 71 
C 301 7 371 7 390 7 
C 506 7 640 7 762 7 
L 1517 7 
C 1632 7 1766 7 1882 7 
C 1933 7 2003 7 2003 128 
C 2003 192 1946 192 1850 192 
C 1459 192 1459 243 1459 306 
C 1459 313 1459 357 1472 407 
L 1901 2112 
L 2669 2112 
C 3277 2112 3392 1731 3392 1522 
C 3392 1427 3328 1179 3283 1014 
C 3213 723 3194 652 3194 532 
C 3194 82 3565 -128 3994 -128 
C 4512 -128 4736 501 4736 591 
C 4736 635 4704 654 4666 654 
C 4614 654 4602 616 4589 565 
C 4435 114 4173 0 4013 0 
C 3853 0 3750 70 3750 356 
C 3750 509 3827 1088 3834 1120 
C 3866 1355 3866 1380 3866 1432 
C 3866 1896 3488 2093 3245 2169 
z
" transform="scale(0.015625)"/>
      <path id="NimbusSanL-Regu-6f" d="M 1741 3456 
C 800 3456 230 2786 230 1663 
C 230 541 794 -128 1747 -128 
C 2688 -128 3264 541 3264 1638 
C 3264 2792 2707 3456 1741 3456 
z
M 1747 2962 
C 2349 2962 2707 2472 2707 1645 
C 2707 861 2336 365 1747 365 
C 1152 365 787 855 787 1663 
C 787 2466 1152 2962 1747 2962 
z
" transform="scale(0.015625)"/>
     </defs>
     <use xlink:href="#CMMI12-52" transform="scale(0.996264)"/>
     <use xlink:href="#CMSY10-18" transform="translate(10.414984 -59.775871) scale(0.697382)"/>
     <use xlink:href="#NimbusSanL-Regu-3a" transform="translate(102.766132 0) scale(0.996264)"/>
     <use xlink:href="#NimbusSanL-Regu-72" transform="translate(164.730953 0) scale(0.996264)"/>
     <use xlink:href="#NimbusSanL-Regu-6f" transform="translate(197.906183 0) scale(0.996264)"/>
     <use xlink:href="#NimbusSanL-Regu-74" transform="translate(253.297859 0) scale(0.996264)"/>
     <use xlink:href="#NimbusSanL-Regu-61" transform="translate(280.993029 0) scale(0.996264)"/>
     <use xlink:href="#NimbusSanL-Regu-74" transform="translate(336.384706 0) scale(0.996264)"/>
     <use xlink:href="#NimbusSanL-Regu-69" transform="translate(364.079876 0) scale(0.996264)"/>
     <use xlink:href="#NimbusSanL-Regu-6f" transform="translate(386.19666 0) scale(0.996264)"/>
     <use xlink:href="#NimbusSanL-Regu-6e" transform="translate(441.588337 0) scale(0.996264)"/>
     <use xlink:href="#NimbusSanL-Regu-70" transform="translate(524.675184 0) scale(0.996264)"/>
     <use xlink:href="#NimbusSanL-Regu-75" transform="translate(580.06686 0) scale(0.996264)"/>
     <use xlink:href="#NimbusSanL-Regu-72" transform="translate(635.458537 0) scale(0.996264)"/>
     <use xlink:href="#NimbusSanL-Regu-65" transform="translate(668.633767 0) scale(0.996264)"/>
    </g>
   </g>
   <g id="text_4">
    <!-- $\tens{F}=\tens{R}\cdot\tens{U}=\tens{V}\cdot\tens{R}$ -->
    <g style="fill: #0b0b0b" transform="translate(204.526917 145.894138) scale(0.09 -0.09)">
     <defs>
      <path id="CMMI12-46" d="M 1901 2055 
L 2515 2055 
C 3002 2055 3040 1946 3040 1761 
C 3040 1678 3027 1589 2995 1448 
C 2982 1423 2976 1391 2976 1378 
C 2976 1333 3002 1308 3046 1308 
C 3098 1308 3104 1333 3130 1435 
L 3501 2935 
C 3501 2961 3482 2999 3437 2999 
C 3379 2999 3373 2974 3347 2863 
C 3213 2376 3085 2240 2528 2240 
L 1946 2240 
L 2362 3926 
C 2419 4154 2432 4154 2694 4154 
L 3552 4154 
C 4352 4154 4467 3918 4467 3464 
C 4467 3426 4467 3285 4448 3119 
C 4442 3094 4429 3011 4429 2985 
C 4429 2934 4461 2915 4499 2915 
C 4544 2915 4570 2941 4582 3055 
L 4717 4174 
C 4717 4195 4730 4263 4730 4277 
C 4730 4352 4672 4352 4557 4352 
L 1523 4352 
C 1402 4352 1338 4352 1338 4229 
C 1338 4154 1382 4154 1491 4154 
C 1888 4154 1888 4113 1888 4050 
C 1888 4018 1882 3992 1862 3922 
L 998 473 
C 941 249 928 185 480 185 
C 358 185 294 185 294 70 
C 294 0 352 0 390 0 
C 512 0 640 0 762 0 
L 1594 0 
C 1734 0 1888 0 2029 0 
C 2086 0 2163 0 2163 115 
C 2163 185 2125 185 1984 185 
C 1478 185 1466 229 1466 324 
C 1466 356 1478 406 1491 449 
L 1901 2055 
z
" transform="scale(0.015625)"/>
      <path id="CMR17-3d" d="M 4115 2017 
C 4211 2017 4307 2017 4307 2125 
C 4307 2240 4198 2240 4090 2240 
L 512 2240 
C 403 2240 294 2240 294 2125 
C 294 2017 390 2017 486 2017 
L 4115 2017 
z
M 4090 896 
C 4198 896 4307 896 4307 1011 
C 4307 1119 4211 1119 4115 1119 
L 486 1119 
C 390 1119 294 1119 294 1011 
C 294 896 403 896 512 896 
L 4090 896 
z
" transform="scale(0.015625)"/>
      <path id="CMSY10-1" d="M 1229 1619 
C 1229 1805 1075 1958 890 1958 
C 704 1958 550 1805 550 1619 
C 550 1433 704 1280 890 1280 
C 1075 1280 1229 1433 1229 1619 
z
" transform="scale(0.015625)"/>
      <path id="CMMI12-56" d="M 3962 3640 
C 4179 3984 4378 4136 4704 4162 
C 4768 4168 4819 4168 4819 4282 
C 4819 4308 4806 4346 4749 4346 
C 4634 4346 4358 4346 4243 4346 
C 4058 4346 3866 4346 3686 4346 
C 3635 4346 3571 4346 3571 4226 
C 3571 4168 3629 4162 3654 4162 
C 3891 4143 3917 4029 3917 3952 
C 3917 3857 3827 3710 3821 3704 
L 1811 540 
L 1363 3969 
C 1363 4160 1696 4160 1766 4160 
C 1862 4160 1920 4160 1920 4282 
C 1920 4346 1850 4346 1830 4346 
C 1722 4346 1594 4346 1485 4346 
L 1126 4346 
C 659 4346 467 4346 461 4346 
C 422 4346 346 4346 346 4230 
C 346 4160 390 4160 493 4160 
C 819 4160 838 4102 858 3944 
L 1370 24 
C 1389 -109 1389 -128 1478 -128 
C 1555 -128 1587 -109 1651 -8 
L 3962 3640 
z
" transform="scale(0.015625)"/>
     </defs>
     <use xlink:href="#CMMI12-46" transform="scale(0.996264)"/>
     <use xlink:href="#CMSY10-18" transform="translate(11.2279 -59.775871) scale(0.697382)"/>
     <use xlink:href="#CMR17-3d" transform="translate(104.370801 0) scale(0.996264)"/>
     <use xlink:href="#CMMI12-52" transform="translate(203.759598 0) scale(0.996264)"/>
     <use xlink:href="#CMSY10-18" transform="translate(214.174583 -59.775871) scale(0.697382)"/>
     <use xlink:href="#CMSY10-1" transform="translate(300.969767 0) scale(0.996264)"/>
     <use xlink:href="#CMMI12-55" transform="translate(350.783059 0) scale(0.996264)"/>
     <use xlink:href="#CMSY10-18" transform="translate(361.991956 -59.775871) scale(0.697382)"/>
     <use xlink:href="#CMR17-3d" transform="translate(455.115841 0) scale(0.996264)"/>
     <use xlink:href="#CMMI12-56" transform="translate(554.504638 0) scale(0.996264)"/>
     <use xlink:href="#CMSY10-18" transform="translate(566.657809 -59.775871) scale(0.697382)"/>
     <use xlink:href="#CMSY10-1" transform="translate(655.191165 0) scale(0.996264)"/>
     <use xlink:href="#CMMI12-52" transform="translate(705.004457 0) scale(0.996264)"/>
     <use xlink:href="#CMSY10-18" transform="translate(715.419441 -59.775871) scale(0.697382)"/>
    </g>
   </g>
   <g id="text_5">
    <!-- $\tens{U}$ -->
    <g style="fill: #0b0b0b" transform="translate(72.441504 52.939079) scale(0.1 -0.1)">
     <use xlink:href="#CMMI12-55" transform="scale(0.996264)"/>
     <use xlink:href="#CMSY10-18" transform="translate(11.208897 -59.775871) scale(0.697382)"/>
    </g>
   </g>
   <g id="text_6">
    <!-- $\tens{R}$ -->
    <g style="fill: #0b0b0b" transform="translate(197.210879 53.708451) scale(0.1 -0.1)">
     <use xlink:href="#CMMI12-52" transform="scale(0.996264)"/>
     <use xlink:href="#CMSY10-18" transform="translate(10.414984 -59.775871) scale(0.697382)"/>
    </g>
   </g>
   <g id="text_7">
    <!-- $\tens{R}$ -->
    <g style="fill: #0b0b0b" transform="translate(74.11145 131.414965) scale(0.1 -0.1)">
     <use xlink:href="#CMMI12-52" transform="scale(0.996264)"/>
     <use xlink:href="#CMSY10-18" transform="translate(10.414984 -59.775871) scale(0.697382)"/>
    </g>
   </g>
   <g id="text_8">
    <!-- $\tens{V}$ -->
    <g style="fill: #0b0b0b" transform="translate(185.88954 111.411308) scale(0.1 -0.1)">
     <use xlink:href="#CMMI12-56" transform="scale(0.996264)"/>
     <use xlink:href="#CMSY10-18" transform="translate(12.153171 -59.775871) scale(0.697382)"/>
    </g>
   </g>
   <g id="text_9">
    <!-- $\vect{N}_1,\vect{N}_2$ -->
    <g style="fill: #eb6834" transform="translate(19.328659 69.210263) scale(0.085 -0.085)">
     <defs>
      <path id="CMMI12-4e" d="M 4736 3698 
C 4806 3974 4909 4166 5395 4166 
C 5414 4166 5491 4166 5491 4279 
C 5491 4352 5434 4352 5408 4352 
C 5280 4352 4954 4352 4826 4352 
L 4518 4352 
C 4429 4352 4314 4352 4224 4352 
C 4186 4352 4109 4352 4109 4230 
C 4109 4166 4160 4166 4205 4166 
C 4589 4166 4614 4019 4614 3903 
C 4614 3846 4608 3826 4589 3737 
L 3866 850 
L 2496 4249 
C 2451 4352 2445 4352 2304 4352 
L 1523 4352 
C 1395 4352 1338 4352 1338 4230 
C 1338 4166 1382 4166 1504 4166 
C 1536 4166 1914 4166 1914 4115 
C 1914 4102 1901 4051 1894 4032 
L 1043 635 
C 966 320 813 186 390 186 
C 358 186 294 186 294 67 
C 294 0 358 0 378 0 
C 506 0 832 0 960 0 
L 1267 0 
C 1357 0 1466 0 1555 0 
C 1600 0 1670 0 1670 122 
C 1670 180 1606 186 1581 186 
C 1370 186 1165 224 1165 454 
C 1165 505 1178 562 1190 613 
L 2054 4032 
C 2093 3968 2093 3956 2118 3898 
L 3642 115 
C 3674 38 3686 0 3744 0 
C 3808 0 3814 19 3840 128 
L 4736 3698 
z
" transform="scale(0.015625)"/>
      <path id="CMR17-31" d="M 1702 4058 
C 1702 4192 1696 4192 1606 4192 
C 1357 3916 979 3827 621 3827 
C 602 3827 570 3827 563 3808 
C 557 3795 557 3782 557 3648 
C 755 3648 1088 3686 1344 3839 
L 1344 461 
C 1344 236 1331 160 781 160 
L 589 160 
L 589 0 
C 896 0 1216 0 1523 0 
C 1830 0 2150 0 2458 0 
L 2458 160 
L 2266 160 
C 1715 160 1702 230 1702 458 
L 1702 4058 
z
" transform="scale(0.015625)"/>
      <path id="CMMI12-3b" d="M 1248 -31 
C 1248 343 1126 619 864 619 
C 659 619 557 453 557 313 
C 557 172 653 0 870 0 
C 954 0 1024 26 1082 83 
C 1094 96 1101 96 1107 96 
C 1120 96 1120 5 1120 -27 
C 1120 -240 1082 -659 710 -1080 
C 640 -1157 640 -1170 640 -1183 
C 640 -1216 672 -1248 704 -1248 
C 755 -1248 1248 -771 1248 -31 
z
" transform="scale(0.015625)"/>
      <path id="CMR17-32" d="M 2669 989 
L 2554 989 
C 2490 536 2438 459 2413 420 
C 2381 369 1920 369 1830 369 
L 602 369 
C 832 619 1280 1072 1824 1597 
C 2214 1967 2669 2402 2669 3035 
C 2669 3790 2067 4224 1395 4224 
C 691 4224 262 3604 262 3030 
C 262 2780 448 2748 525 2748 
C 589 2748 781 2787 781 3010 
C 781 3207 614 3264 525 3264 
C 486 3264 448 3258 422 3245 
C 544 3790 915 4058 1306 4058 
C 1862 4058 2227 3617 2227 3035 
C 2227 2479 1901 2000 1536 1584 
L 262 146 
L 262 0 
L 2515 0 
L 2669 989 
z
" transform="scale(0.015625)"/>
     </defs>
     <use xlink:href="#CMMI12-4e" transform="scale(0.996264)"/>
     <use xlink:href="#CMR17-31" transform="translate(88.521773 -23.411657) scale(0.697382)"/>
     <use xlink:href="#CMMI12-3b" transform="translate(121.003087 0) scale(0.996264)"/>
     <use xlink:href="#CMMI12-4e" transform="translate(164.704669 0) scale(0.996264)"/>
     <use xlink:href="#CMR17-32" transform="translate(253.226441 -23.411657) scale(0.697382)"/>
     <path d="M 0 -15.939799 
L 88.521773 -15.939799 
L 88.521773 -11.954849 
L 0 -11.954849 
L 0 -15.939799 
z
"/>
     <path d="M 164.704669 -15.939799 
L 253.226441 -15.939799 
L 253.226441 -11.954849 
L 164.704669 -11.954849 
L 164.704669 -15.939799 
z
"/>
    </g>
   </g>
   <g id="text_10">
    <!-- même -->
    <g style="fill: #52514e" transform="translate(281.777143 61.920736) scale(0.085 -0.085)">
     <defs>
      <path id="NimbusSanL-Regu-88" d="M 742 4736 
L 128 3776 
L 538 3776 
L 1043 4390 
L 1562 3776 
L 1965 3776 
L 1350 4736 
L 742 4736 
z
" transform="scale(0.015625)"/>
     </defs>
     <use xlink:href="#NimbusSanL-Regu-6d" transform="scale(0.996264)"/>
     <use xlink:href="#NimbusSanL-Regu-88" transform="translate(94.096661 1.842456) scale(0.996264)"/>
     <use xlink:href="#NimbusSanL-Regu-65" transform="translate(82.98843 0) scale(0.996264)"/>
     <use xlink:href="#NimbusSanL-Regu-6d" transform="translate(138.380107 0) scale(0.996264)"/>
     <use xlink:href="#NimbusSanL-Regu-65" transform="translate(221.368537 0) scale(0.996264)"/>
    </g>
    <!-- résultat -->
    <g style="fill: #52514e" transform="translate(281.777143 70.964699) scale(0.085 -0.085)">
     <defs>
      <path id="NimbusSanL-Regu-73" d="M 2803 2427 
C 2797 3085 2362 3456 1587 3456 
C 806 3456 301 3054 301 2436 
C 301 1913 570 1665 1363 1474 
L 1862 1353 
C 2234 1263 2381 1130 2381 888 
C 2381 576 2067 365 1600 365 
C 1312 365 1069 448 934 588 
C 851 684 813 779 781 1014 
L 218 1014 
C 243 241 678 -128 1555 -128 
C 2400 -128 2938 285 2938 929 
C 2938 1426 2656 1701 1990 1860 
L 1478 1981 
C 1043 2082 858 2223 858 2458 
C 858 2764 1133 2962 1568 2962 
C 1997 2962 2227 2777 2240 2427 
L 2803 2427 
z
" transform="scale(0.015625)"/>
     </defs>
     <use xlink:href="#NimbusSanL-Regu-72" transform="scale(0.996264)"/>
     <use xlink:href="#NimbusSanL-Regu-b4" transform="translate(44.283461 1.842456) scale(0.996264)"/>
     <use xlink:href="#NimbusSanL-Regu-65" transform="translate(33.17523 0) scale(0.996264)"/>
     <use xlink:href="#NimbusSanL-Regu-73" transform="translate(88.566907 0) scale(0.996264)"/>
     <use xlink:href="#NimbusSanL-Regu-75" transform="translate(138.380107 0) scale(0.996264)"/>
     <use xlink:href="#NimbusSanL-Regu-6c" transform="translate(193.771784 0) scale(0.996264)"/>
     <use xlink:href="#NimbusSanL-Regu-74" transform="translate(215.888569 0) scale(0.996264)"/>
     <use xlink:href="#NimbusSanL-Regu-61" transform="translate(243.583738 0) scale(0.996264)"/>
     <use xlink:href="#NimbusSanL-Regu-74" transform="translate(298.975415 0) scale(0.996264)"/>
    </g>
    <!-- par les -->
    <g style="fill: #52514e" transform="translate(281.777143 80.008662) scale(0.085 -0.085)">
     <use xlink:href="#NimbusSanL-Regu-70" transform="scale(0.996264)"/>
     <use xlink:href="#NimbusSanL-Regu-61" transform="translate(55.391677 0) scale(0.996264)"/>
     <use xlink:href="#NimbusSanL-Regu-72" transform="translate(110.783354 0) scale(0.996264)"/>
     <use xlink:href="#NimbusSanL-Regu-6c" transform="translate(171.653753 0) scale(0.996264)"/>
     <use xlink:href="#NimbusSanL-Regu-65" transform="translate(193.770538 0) scale(0.996264)"/>
     <use xlink:href="#NimbusSanL-Regu-73" transform="translate(249.162215 0) scale(0.996264)"/>
    </g>
    <!-- deux -->
    <g style="fill: #52514e" transform="translate(281.777143 89.052625) scale(0.085 -0.085)">
     <defs>
      <path id="NimbusSanL-Regu-64" d="M 3168 4672 
L 2637 4672 
L 2637 2937 
C 2413 3276 2054 3456 1606 3456 
C 736 3456 166 2761 166 1695 
C 166 566 723 -128 1626 -128 
C 2086 -128 2406 45 2694 461 
L 2694 -2 
L 3168 -2 
L 3168 4672 
z
M 1696 2956 
C 2272 2956 2637 2447 2637 1651 
C 2637 881 2266 372 1702 372 
C 1114 372 723 887 723 1664 
C 723 2440 1114 2956 1696 2956 
z
" transform="scale(0.015625)"/>
      <path id="NimbusSanL-Regu-78" d="M 1869 1737 
L 2995 3359 
L 2394 3359 
L 1587 2141 
L 781 3359 
L 173 3359 
L 1293 1712 
L 109 0 
L 717 0 
L 1568 1288 
L 2406 0 
L 3027 0 
L 1869 1737 
z
" transform="scale(0.015625)"/>
     </defs>
     <use xlink:href="#NimbusSanL-Regu-64" transform="scale(0.996264)"/>
     <use xlink:href="#NimbusSanL-Regu-65" transform="translate(55.391677 0) scale(0.996264)"/>
     <use xlink:href="#NimbusSanL-Regu-75" transform="translate(110.783354 0) scale(0.996264)"/>
     <use xlink:href="#NimbusSanL-Regu-78" transform="translate(166.175031 0) scale(0.996264)"/>
    </g>
    <!-- chemins -->
    <g style="fill: #52514e" transform="translate(281.777143 98.096588) scale(0.085 -0.085)">
     <defs>
      <path id="NimbusSanL-Regu-63" d="M 3014 2236 
C 2989 2562 2918 2773 2790 2958 
C 2560 3271 2157 3456 1690 3456 
C 787 3456 198 2742 198 1632 
C 198 554 774 -128 1683 -128 
C 2483 -128 2989 350 3053 1167 
L 2515 1167 
C 2426 632 2150 365 1696 365 
C 1107 365 755 843 755 1632 
C 755 2466 1101 2962 1683 2962 
C 2131 2962 2413 2701 2477 2236 
L 3014 2236 
z
" transform="scale(0.015625)"/>
      <path id="NimbusSanL-Regu-68" d="M 448 4672 
L 448 -2 
L 979 -2 
L 979 1852 
C 979 2539 1338 2988 1888 2988 
C 2061 2988 2234 2930 2362 2834 
C 2515 2725 2579 2564 2579 2327 
L 2579 -2 
L 3110 -2 
L 3110 2538 
C 3110 3103 2707 3456 2054 3456 
C 1581 3456 1293 3308 979 2898 
L 979 4672 
L 448 4672 
z
" transform="scale(0.015625)"/>
     </defs>
     <use xlink:href="#NimbusSanL-Regu-63" transform="scale(0.996264)"/>
     <use xlink:href="#NimbusSanL-Regu-68" transform="translate(49.8132 0) scale(0.996264)"/>
     <use xlink:href="#NimbusSanL-Regu-65" transform="translate(105.204877 0) scale(0.996264)"/>
     <use xlink:href="#NimbusSanL-Regu-6d" transform="translate(160.596554 0) scale(0.996264)"/>
     <use xlink:href="#NimbusSanL-Regu-69" transform="translate(243.584985 0) scale(0.996264)"/>
     <use xlink:href="#NimbusSanL-Regu-6e" transform="translate(265.701769 0) scale(0.996264)"/>
     <use xlink:href="#NimbusSanL-Regu-73" transform="translate(321.093446 0) scale(0.996264)"/>
    </g>
   </g>
  </g>
 </g>
 <defs>
  <clipPath id="pb253e3bef1">
   <rect x="2.88" y="2.88" width="311.595429" height="188.496"/>
  </clipPath>
 </defs>
</svg>
